<svg width="32" height="32" viewBox="0 0 32 32" fill="none" xmlns="http://www.w3.org/2000/svg">
<path d="M30 20C29.9984 17.3278 29.2239 14.7131 27.77 12.471L26.326 13.916C27.4217 15.7563 28.0001 17.8583 28 20H30ZM28 9.41404L26.586 8.00004L18.019 16.567C17.4094 16.1997 16.7118 16.0038 16 16C15.2089 16 14.4355 16.2346 13.7777 16.6742C13.1199 17.1137 12.6073 17.7384 12.3045 18.4693C12.0017 19.2002 11.9225 20.0045 12.0769 20.7804C12.2312 21.5563 12.6122 22.2691 13.1716 22.8285C13.731 23.3879 14.4437 23.7688 15.2197 23.9232C15.9956 24.0775 16.7998 23.9983 17.5308 23.6956C18.2617 23.3928 18.8864 22.8801 19.3259 22.2223C19.7654 21.5645 20 20.7912 20 20C19.9964 19.2879 19.8005 18.59 19.433 17.98L28 9.41404ZM16 22C15.6045 22 15.2178 21.8827 14.8889 21.663C14.56 21.4432 14.3036 21.1309 14.1523 20.7654C14.0009 20.4 13.9613 19.9978 14.0384 19.6099C14.1156 19.2219 14.3061 18.8655 14.5858 18.5858C14.8655 18.3061 15.2219 18.1156 15.6098 18.0385C15.9978 17.9613 16.3999 18.0009 16.7654 18.1523C17.1308 18.3037 17.4432 18.56 17.663 18.8889C17.8827 19.2178 18 19.6045 18 20C17.9995 20.5303 17.7886 21.0387 17.4136 21.4137C17.0387 21.7886 16.5303 21.9995 16 22ZM16 8.00004C18.1413 8.00102 20.2427 8.57931 22.083 9.67404L23.537 8.22104C21.424 6.86221 18.9838 6.098 16.4732 6.00881C13.9626 5.91962 11.4743 6.50875 9.27025 7.71421C7.06615 8.91968 5.22769 10.6969 3.9483 12.8589C2.66891 15.021 1.99588 17.4878 2.00002 20H4.00002C4.00372 16.8186 5.2692 13.7685 7.51883 11.5189C9.76846 9.26922 12.8186 8.00375 16 8.00004Z" fill="#00509E"/>
</svg>
