<svg width="32" height="32" viewBox="0 0 32 32" fill="none" xmlns="http://www.w3.org/2000/svg">
<path d="M14.667 18.6667H12.0003C12.0003 15.4841 13.2646 12.4319 15.515 10.1815C17.7655 7.93103 20.8177 6.66675 24.0003 6.66675V9.33341C18.8403 9.33341 14.667 13.5067 14.667 18.6667ZM24.0003 14.6667V12.0001C20.3203 12.0001 17.3337 14.9867 17.3337 18.6667H20.0003C20.0003 16.4534 21.787 14.6667 24.0003 14.6667ZM9.33366 5.33341C9.33366 3.85341 8.14699 2.66675 6.66699 2.66675C5.18699 2.66675 4.00033 3.85341 4.00033 5.33341C4.00033 6.81341 5.18699 8.00008 6.66699 8.00008C8.14699 8.00008 9.33366 6.81341 9.33366 5.33341ZM15.267 6.00008H12.6003C12.4456 6.93148 11.9653 7.77774 11.245 8.38816C10.5247 8.99858 9.61116 9.33355 8.66699 9.33341H4.66699C3.56033 9.33341 2.66699 10.2267 2.66699 11.3334V14.6667H10.667V11.6534C11.9024 11.2638 12.9965 10.5207 13.814 9.51595C14.6316 8.51119 15.1367 7.28886 15.267 6.00008ZM25.3337 22.6667C26.8137 22.6667 28.0003 21.4801 28.0003 20.0001C28.0003 18.5201 26.8137 17.3334 25.3337 17.3334C23.8537 17.3334 22.667 18.5201 22.667 20.0001C22.667 21.4801 23.8537 22.6667 25.3337 22.6667ZM27.3337 24.0001H23.3337C22.3895 24.0002 21.4759 23.6652 20.7556 23.0548C20.0353 22.4444 19.5551 21.5981 19.4003 20.6667H16.7337C16.8639 21.9555 17.3691 23.1779 18.1866 24.1826C19.0042 25.1874 20.0983 25.9305 21.3337 26.3201V29.3334H29.3337V26.0001C29.3337 24.8934 28.4403 24.0001 27.3337 24.0001Z" fill="#00509E"/>
</svg>
