<svg width="41" height="39" viewBox="0 0 41 39" fill="none" xmlns="http://www.w3.org/2000/svg">
<rect opacity="0.25" x="1.45215" y="0.5" width="38.2837" height="38" rx="19" stroke="#0A142F"/>
<path fill-rule="evenodd" clip-rule="evenodd" d="M17.0687 26H14.0469V17H17.0687V26Z" fill="#0A142F"/>
<path fill-rule="evenodd" clip-rule="evenodd" d="M15.5488 15H15.5316C14.6299 15 14.0469 14.333 14.0469 13.4995C14.0469 12.6483 14.6476 12 15.5665 12C16.4854 12 17.0513 12.6483 17.0687 13.4995C17.0687 14.333 16.4854 15 15.5488 15Z" fill="#0A142F"/>
<path fill-rule="evenodd" clip-rule="evenodd" d="M28.1484 25.9998H25.179V21.2954C25.179 20.1137 24.7493 19.3074 23.6743 19.3074C22.8539 19.3074 22.3653 19.851 22.1507 20.376C22.0721 20.5641 22.0529 20.8263 22.0529 21.0891V26H19.083C19.083 26 19.1221 18.0318 19.083 17.2067H22.0529V18.4522C22.447 17.8535 23.1529 17 24.7295 17C26.6835 17 28.1485 18.2571 28.1485 20.958L28.1484 25.9998Z" fill="#0A142F"/>
</svg>
