<svg width="32" height="32" viewBox="0 0 32 32" fill="none" xmlns="http://www.w3.org/2000/svg">
<path d="M13.3336 4L10.6669 6.66667V9.33333H6.66689C5.13355 9.33333 4.16022 10.6667 4.00022 12L2.66689 25.3333C2.50689 26.6667 3.38689 28 5.33355 28H26.6669C28.6136 28 29.4936 26.6667 29.3336 25.3333L28.0002 12C27.8402 10.6667 26.7469 9.33333 25.3336 9.33333H21.3336V6.66667L18.6669 4H13.3336ZM13.3336 6.66667H18.6669V9.33333H13.3336V6.66667ZM14.6669 13.3333H17.3336V17.3333H21.3336V20H17.3336V24H14.6669V20H10.6669V17.3333H14.6669V13.3333Z" fill="#00509E"/>
</svg>
