<svg width="14" height="11" viewBox="0 0 14 11" fill="none" xmlns="http://www.w3.org/2000/svg">
<path fill-rule="evenodd" clip-rule="evenodd" d="M6.79078 2.92617L6.81917 3.40195L6.34609 3.34369C4.62409 3.12037 3.1197 2.363 1.84239 1.09102L1.21793 0.459879L1.05708 0.92595C0.716464 1.9649 0.93408 3.06211 1.6437 3.80006C2.02216 4.20787 1.937 4.26613 1.28416 4.02338C1.05708 3.9457 0.858387 3.88744 0.839464 3.91657C0.773233 3.98454 1.00031 4.86814 1.18008 5.21769C1.42608 5.70318 1.92754 6.17896 2.47631 6.46055L2.93993 6.68387L2.39116 6.69358C1.86131 6.69358 1.84239 6.70329 1.89916 6.9072C2.08839 7.53834 2.83585 8.20831 3.66847 8.49961L4.25508 8.70351L3.74416 9.01423C2.98724 9.46088 2.09785 9.71333 1.20846 9.73275C0.782695 9.74246 0.432617 9.7813 0.432617 9.81043C0.432617 9.90753 1.58693 10.4513 2.2587 10.6649C4.27401 11.296 6.66778 11.0242 8.46548 9.94637C9.74279 9.17929 11.0201 7.65485 11.6162 6.17896C11.9379 5.39247 12.2596 3.95541 12.2596 3.26602C12.2596 2.81936 12.2879 2.7611 12.8178 2.22707C13.13 1.91635 13.4233 1.57651 13.4801 1.47941C13.5747 1.29492 13.5653 1.29492 13.0827 1.45999C12.2785 1.75128 12.1649 1.71245 12.5623 1.2755C12.8556 0.964789 13.2057 0.40162 13.2057 0.236553C13.2057 0.207424 13.0638 0.255973 12.9029 0.343361C12.7326 0.440459 12.3542 0.586106 12.0703 0.673494L11.5594 0.838562L11.0958 0.518138C10.8403 0.343361 10.4808 0.149165 10.2916 0.0909061C9.80902 -0.0450315 9.07102 -0.0256119 8.63578 0.129745C7.45309 0.566688 6.70563 1.69303 6.79078 2.92617Z" fill="#0A142F"/>
</svg>
